<svg version="1.1" xmlns="http://www.w3.org/2000/svg" xmlns:xlink="http://www.w3.org/1999/xlink" width="152.09489" height="159.9615" viewBox="0,0,152.09489,159.9615"><defs><linearGradient x1="254.95448" y1="133.86674" x2="233.52976" y2="250.44399" gradientUnits="userSpaceOnUse" id="color-1"><stop offset="0" stop-color="#c4d4ff"/><stop offset="1" stop-color="#738fff"/></linearGradient><radialGradient cx="244.24212" cy="192.15536" r="57.09877" gradientUnits="userSpaceOnUse" id="color-2"><stop offset="0" stop-color="#5280ff" stop-opacity="0"/><stop offset="1" stop-color="#5280ff"/></radialGradient><linearGradient x1="248.24534" y1="110.4748" x2="245.4962" y2="162.18504" gradientUnits="userSpaceOnUse" id="color-3"><stop offset="0" stop-color="#c4d4ff"/><stop offset="1" stop-color="#738fff"/></linearGradient></defs><g transform="translate(-167.6301,-105.05932)"><g data-paper-data="{&quot;isPaintingLayer&quot;:true}" fill-rule="nonzero" stroke-linejoin="miter" stroke-miterlimit="10" stroke-dasharray="" stroke-dashoffset="0" style="mix-blend-mode: normal"><path d="M185.95349,181.443c5.91627,-32.19191 36.80906,-53.49253 69.00099,-47.57626c32.19191,5.91627 53.49254,36.80907 47.57627,69.00099c-5.91627,32.19192 -36.80907,53.49254 -69.00098,47.57627c-32.19191,-5.91627 -53.49253,-36.80906 -47.57626,-69.00098z" fill="url(#color-1)" stroke="#001026" stroke-width="4.96679" stroke-linecap="butt"/><path d="M300.40037,202.4762c-5.64869,30.73593 -35.37077,51.03152 -66.38611,45.33148c-31.01535,-5.70004 -51.57909,-35.23723 -45.9304,-65.97316c5.64869,-30.73593 35.37077,-51.03152 66.38611,-45.33148c31.01535,5.70004 51.57909,35.23723 45.9304,65.97316z" fill="url(#color-2)" stroke="#001026" stroke-width="0" stroke-linecap="butt"/><path d="M192.75861,159.38129l2.74913,-51.71024l105.47519,5.60751l-2.74913,51.71024z" fill="url(#color-3)" stroke="#003e95" stroke-width="4.96679" stroke-linecap="butt"/><path d="M170.11349,159.35767l147.1281,5.76998" fill="none" stroke="#003e95" stroke-width="4.96679" stroke-linecap="round"/><path d="M193.60011,180.35527c1.94065,-10.55957 12.07408,-17.54658 22.63365,-15.60593c10.55957,1.94065 17.54658,12.07408 15.60593,22.63365c-1.94065,10.55957 -12.07408,17.54658 -22.63365,15.60593c-10.55957,-1.94065 -17.54658,-12.07408 -15.60593,-22.63365z" fill="#ffffff" stroke="#001026" stroke-width="4.96679" stroke-linecap="butt"/><path d="M257.67,184.03681c1.94065,-10.55956 12.07408,-17.54658 22.63365,-15.60593c10.55956,1.94065 17.54658,12.07409 15.60593,22.63365c-1.94065,10.55956 -12.07409,17.54657 -22.63365,15.60592c-10.55957,-1.94065 -17.54658,-12.07408 -15.60593,-22.63364z" fill="#ffffff" stroke="#001026" stroke-width="4.96679" stroke-linecap="butt"/><path d="M267.25258,182.58777c0.75444,-4.10508 4.69386,-6.82131 8.79894,-6.06688c4.10508,0.75444 6.82131,4.69386 6.06688,8.79894c-0.75444,4.10508 -4.69386,6.82131 -8.79894,6.06688c-4.10508,-0.75444 -6.82131,-4.69386 -6.06688,-8.79894z" fill="#001026" stroke="#001026" stroke-width="4.96679" stroke-linecap="butt"/><path d="M203.03292,178.55377c0.75444,-4.10508 4.69386,-6.82131 8.79893,-6.06688c4.10508,0.75444 6.8213,4.69385 6.06687,8.79893c-0.75444,4.10508 -4.69386,6.82132 -8.79893,6.06689c-4.10508,-0.75444 -6.8213,-4.69385 -6.06687,-8.79894z" fill="#001026" stroke="#001026" stroke-width="4.96679" stroke-linecap="butt"/><path d="M250.69968,242.13416c0,11.26841 -6.01826,20.40326 -13.44215,20.40326c-7.42389,0 -13.44215,-9.13485 -13.44215,-20.40326c0,-11.26841 6.01826,-20.40326 13.44215,-20.40326c7.42389,0 13.44215,9.13485 13.44215,20.40326z" fill="#0006ff" stroke="#001026" stroke-width="4.96679" stroke-linecap="butt"/><path d="M310.46924,179.72418c0,0 6.58847,-53.55299 -19.70158,-59.99305c-20.66115,-5.0612 -29.02622,10.54514 -29.02622,10.54514" fill="none" stroke="#001026" stroke-width="4.96679" stroke-linecap="round"/></g></g></svg>