<svg version="1.1" xmlns="http://www.w3.org/2000/svg" xmlns:xlink="http://www.w3.org/1999/xlink" width="154.55082" height="152.36338" viewBox="0,0,154.55082,152.36338"><defs><linearGradient x1="245.96213" y1="135.16866" x2="245.96213" y2="253.69829" gradientUnits="userSpaceOnUse" id="color-1"><stop offset="0" stop-color="#c4d4ff"/><stop offset="1" stop-color="#738fff"/></linearGradient><radialGradient cx="245.96213" cy="194.43347" r="57.09877" gradientUnits="userSpaceOnUse" id="color-2"><stop offset="0" stop-color="#5280ff" stop-opacity="0"/><stop offset="1" stop-color="#5280ff"/></radialGradient><linearGradient x1="235.13531" y1="113.37473" x2="241.7783" y2="164.73013" gradientUnits="userSpaceOnUse" id="color-3"><stop offset="0" stop-color="#c4d4ff"/><stop offset="1" stop-color="#738fff"/></linearGradient></defs><g transform="translate(-164.64281,-103.81831)"><g data-paper-data="{&quot;isPaintingLayer&quot;:true}" fill-rule="nonzero" stroke-linejoin="miter" stroke-miterlimit="10" stroke-dasharray="" stroke-dashoffset="0" style="mix-blend-mode: normal"><path d="M186.69731,194.43347c0,-32.73105 26.53376,-59.26481 59.26482,-59.26481c32.73105,0 59.26482,26.53376 59.26482,59.26482c0,32.73106 -26.53376,59.26482 -59.26481,59.26482c-32.73105,0 -59.26481,-26.53376 -59.26481,-59.26481z" fill="url(#color-1)" stroke="#001026" stroke-width="4.96679" stroke-linecap="butt"/><path d="M303.0609,194.43347c0,31.25068 -25.56399,56.58436 -57.09877,56.58436c-31.53478,0 -57.09877,-25.33368 -57.09877,-56.58436c0,-31.25068 25.56399,-56.58436 57.09877,-56.58436c31.53478,0 57.09877,25.33368 57.09877,56.58436z" fill="url(#color-2)" stroke="#001026" stroke-width="0" stroke-linecap="butt"/><path d="M189.40259,171.5051l-6.64299,-51.3554l104.75142,-13.54993l6.64299,51.3554z" fill="url(#color-3)" stroke="#003e95" stroke-width="4.96679" stroke-linecap="butt"/><path d="M167.12621,175.57507l145.7476,-20.91907" fill="none" stroke="#003e95" stroke-width="4.96679" stroke-linecap="round"/><path d="M200.26237,195.58208c0,-10.73642 8.46354,-10.0785 19.19996,-10.0785c10.73642,0 19.68004,-0.65792 19.68004,10.0785c0,10.73642 -8.70358,19.44 -19.44,19.44c-10.73642,0 -19.44,-8.70358 -19.44,-19.44z" fill="#ffffff" stroke="#001026" stroke-width="4.96679" stroke-linecap="butt"/><path d="M256.98125,194.82323c0,-10.73641 8.70358,-10.55858 19.44,-10.55858c10.73641,0 19.44,-0.17783 19.44,10.55858c0,10.73641 -8.70359,19.43999 -19.44,19.43999c-10.73642,0 -19.44,-8.70358 -19.44,-19.43999z" fill="#ffffff" stroke="#001026" stroke-width="4.96679" stroke-linecap="butt"/><path d="M202.87842,199.13039c0,-6.4938 5.26426,-11.75806 11.75806,-11.75806c6.4938,0 11.75806,5.26426 11.75806,11.75806c0,6.4938 -5.26426,11.75806 -11.75806,11.75806c-6.4938,0 -11.75806,-5.26426 -11.75806,-11.75806z" fill="#001026" stroke="#001026" stroke-width="4.96679" stroke-linecap="butt"/><path d="M259.423,199.22718c0,-6.4938 5.26426,-11.75806 11.75806,-11.75806c6.4938,0 11.75806,5.26426 11.75806,11.75806c0,6.4938 -5.26426,11.75807 -11.75806,11.75807c-6.4938,0 -11.75806,-5.26427 -11.75806,-11.75807z" fill="#001026" stroke="#001026" stroke-width="4.96679" stroke-linecap="butt"/><path d="M224.29545,235.41309c0,0 25.90367,-2.52812 34.63288,-1.90756c8.10751,0.57637 16.01522,5.50814 16.01522,5.50814" fill="none" stroke="#001026" stroke-width="4.96679" stroke-linecap="round"/><path d="M316.71024,191.96614c0,0 -1.09619,-11.70299 -31.25528,-33.98924c-28.53036,-21.0827 -27.07406,3.50437 -27.07406,3.50437" fill="none" stroke="#001026" stroke-width="4.96679" stroke-linecap="round"/></g></g></svg>